# Blender v2.79 (sub 0) OBJ File: 'CLbaseballcard.blend'
# www.blender.org
mtllib CLbaseballcard.mtl
o card
v 0.000000 -0.000292 -0.002244
v -0.136904 -0.000292 -0.002244
v -0.150197 0.230860 -0.026867
v -0.142051 -0.231444 0.032193
v 0.000000 -0.231444 0.032193
v 0.142051 -0.231444 0.032193
v 0.136904 -0.000292 -0.002244
v 0.146440 0.230860 -0.026867
v 0.000000 0.230860 -0.026867
v 0.146440 0.231444 -0.022379
v 0.000000 0.231444 -0.022379
v -0.150197 0.231444 -0.022379
v 0.000000 0.000292 0.002244
v 0.136904 0.000292 0.002244
v 0.142051 -0.230860 0.036681
v 0.000000 -0.230860 0.036681
v -0.142051 -0.230860 0.036681
v -0.136904 0.000292 0.002244
vt 0.748765 -0.500000
vt 1.000000 -0.500000
vt 1.000000 -0.000000
vt 1.000000 -1.000000
vt 0.748765 -1.000000
vt 0.497530 -1.000000
vt 0.497530 -0.500000
vt 0.497530 -0.000000
vt 0.748765 -0.000000
vt 0.500000 0.010070
vt 0.498885 -0.000000
vt 1.000000 0.010070
vt 0.249442 -0.000000
vt 0.000000 0.010070
vt 0.000000 -0.000000
vt 0.249442 -0.500000
vt 0.498885 -0.500000
vt 0.486893 -0.000000
vt 0.486893 -0.500000
vt 0.486893 -1.000000
vt 0.498885 -1.000000
vt 0.249442 -1.000000
vt 0.000000 -1.000000
vt 0.000000 -0.500000
vt 0.010448 -1.000000
vt 0.010448 -0.500000
vt 0.010448 -0.000000
vt 0.500000 2.000000
vt 0.000000 3.000000
vt 0.000000 2.000000
vt 0.500000 3.000000
vt 1.000000 3.000000
vt 1.000000 2.000000
vn 0.0000 -0.1267 -0.9919
vn -0.6931 -0.1032 -0.7133
vn -0.5965 0.4899 -0.6357
vn -0.5853 -0.6450 -0.4913
vn 0.0000 -0.7980 -0.6026
vn 0.5853 -0.6450 -0.4913
vn 0.6951 -0.0975 -0.7122
vn 0.5915 0.4942 -0.6371
vn 0.0000 0.6191 -0.7853
vn 0.5888 0.6309 0.5052
vn 0.0000 0.7853 0.6191
vn -0.5937 0.6265 0.5049
vn 0.0000 0.1267 0.9919
vn 0.7046 0.0831 0.7047
vn 0.5832 -0.4869 0.6502
vn 0.0000 -0.6026 0.7980
vn -0.5832 -0.4869 0.6502
vn -0.7026 0.0777 0.7073
usemtl CLbaseballcard
s 1
f 1/1/1 2/2/2 3/3/3
f 1/1/1 4/4/4 2/2/2
f 1/1/1 5/5/5 4/4/4
f 1/1/1 6/6/6 5/5/5
f 1/1/1 7/7/7 6/6/6
f 1/1/1 8/8/8 7/7/7
f 1/1/1 9/9/9 8/8/8
f 3/3/3 9/9/9 1/1/1
f 9/10/9 10/11/10 8/12/8
f 9/10/9 11/13/11 10/11/10
f 3/14/3 11/13/11 9/10/9
f 12/15/12 11/13/11 3/14/3
f 13/16/13 11/13/11 12/15/12
f 13/16/13 10/11/10 11/13/11
f 14/17/14 10/11/10 13/16/13
f 14/17/14 8/18/8 10/11/10
f 14/17/14 7/19/7 8/18/8
f 14/17/14 6/20/6 7/19/7
f 14/17/14 15/21/15 6/20/6
f 13/16/13 15/21/15 14/17/14
f 13/16/13 16/22/16 15/21/15
f 13/16/13 17/23/17 16/22/16
f 18/24/18 17/23/17 13/16/13
f 18/24/18 4/25/4 17/23/17
f 18/24/18 2/26/2 4/25/4
f 18/24/18 3/27/3 2/26/2
f 18/24/18 12/15/12 3/27/3
f 13/16/13 12/15/12 18/24/18
f 5/28/5 17/29/17 4/30/4
f 5/28/5 16/31/16 17/29/17
f 5/28/5 15/32/15 16/31/16
f 6/33/6 15/32/15 5/28/5
